<?xml version="1.0" encoding="UTF-8"?>
<svg xmlns="http://www.w3.org/2000/svg" xmlns:xlink="http://www.w3.org/1999/xlink" width="24px" height="24px" viewBox="0 0 24 24" version="1.1">
<g id="surface1">
<path style=" stroke:none;fill-rule:evenodd;fill:rgb(0%,0%,0%);fill-opacity:1;" d="M 21.484375 6.769531 L 20.164062 6.769531 L 24.023438 1.238281 C 24.144531 1.066406 24.191406 0.851562 24.152344 0.644531 C 24.117188 0.433594 23.996094 0.25 23.820312 0.132812 C 23.453125 -0.117188 22.953125 -0.0273438 22.703125 0.339844 L 18.203125 6.769531 L 5.957031 6.769531 L 1.460938 0.339844 C 1.210938 -0.0273438 0.710938 -0.117188 0.34375 0.132812 C 0.167969 0.25 0.046875 0.433594 0.0117188 0.644531 C -0.0273438 0.851562 0.0195312 1.066406 0.144531 1.238281 L 4.003906 6.769531 L 2.683594 6.769531 C 1.503906 6.75 0.453125 7.519531 0.113281 8.648438 C -0.230469 9.773438 0.21875 10.996094 1.207031 11.636719 L 1.207031 19.976562 C 1.226562 22.148438 2.996094 23.894531 5.167969 23.886719 L 18.992188 23.886719 C 21.164062 23.898438 22.9375 22.148438 22.957031 19.976562 L 22.957031 11.632812 C 23.945312 10.992188 24.390625 9.773438 24.050781 8.648438 C 23.707031 7.519531 22.660156 6.753906 21.484375 6.769531 Z M 21.34375 19.976562 C 21.335938 21.265625 20.28125 22.300781 18.992188 22.296875 L 5.167969 22.296875 C 3.878906 22.300781 2.828125 21.265625 2.816406 19.976562 L 2.816406 12.074219 L 21.34375 12.074219 Z M 21.484375 10.480469 L 2.679688 10.480469 C 2.09375 10.480469 1.621094 10.003906 1.621094 9.421875 C 1.621094 8.835938 2.09375 8.359375 2.679688 8.359375 L 21.484375 8.359375 C 22.066406 8.359375 22.542969 8.835938 22.542969 9.417969 C 22.542969 10.003906 22.066406 10.480469 21.484375 10.480469 Z M 12.082031 21.335938 C 11.871094 21.335938 11.664062 21.253906 11.515625 21.101562 C 11.363281 20.953125 11.277344 20.75 11.277344 20.539062 L 11.277344 14.0625 C 11.277344 13.617188 11.636719 13.257812 12.082031 13.257812 C 12.527344 13.257812 12.886719 13.617188 12.886719 14.0625 L 12.886719 20.535156 C 12.886719 20.75 12.800781 20.953125 12.652344 21.101562 C 12.5 21.253906 12.292969 21.335938 12.082031 21.332031 Z M 16.109375 21.335938 C 15.898438 21.335938 15.695312 21.253906 15.542969 21.101562 C 15.390625 20.953125 15.304688 20.75 15.304688 20.539062 L 15.304688 14.0625 C 15.304688 13.617188 15.664062 13.257812 16.109375 13.257812 C 16.554688 13.257812 16.917969 13.617188 16.917969 14.0625 L 16.917969 20.535156 C 16.914062 20.75 16.828125 20.953125 16.679688 21.101562 C 16.527344 21.253906 16.320312 21.335938 16.109375 21.332031 Z M 8.054688 21.335938 C 7.84375 21.335938 7.636719 21.253906 7.484375 21.101562 C 7.335938 20.953125 7.25 20.75 7.25 20.539062 L 7.25 14.0625 C 7.25 13.617188 7.609375 13.257812 8.054688 13.257812 C 8.5 13.257812 8.859375 13.617188 8.859375 14.0625 L 8.859375 20.535156 C 8.859375 20.75 8.773438 20.953125 8.621094 21.101562 C 8.46875 21.253906 8.265625 21.335938 8.054688 21.332031 Z M 8.054688 21.335938 "/>
</g>
</svg>
