<svg
                        xmlns="http://www.w3.org/2000/svg"
                        width="132"
                        height="24"
                        fill="none"
                    >
                        <path
                            fill="#EA131B"
                            fill-rule="evenodd"
                            d="M108.398 7.96a3.43 3.43 0 0 0 1.009 2.434l8.534 7.325 8.534-7.325a3.44 3.44 0 0 0-1.123-5.62 3.46 3.46 0 0 0-2.215-.144.743.743 0 0 1-.834-1.087.74.74 0 0 1 .451-.344 4.95 4.95 0 0 1 5.555 2.297 4.924 4.924 0 0 1-.784 5.95 1 1 0 0 1-.083.07l-8.757 7.516V24l9.81-8.42A10.02 10.02 0 0 0 132 7.96c0-1.63-.501-3.22-1.436-4.557a7.99 7.99 0 0 0-12.622-.592 7.99 7.99 0 0 0-12.622.592 7.95 7.95 0 0 0-1.436 4.557 10.02 10.02 0 0 0 3.506 7.62l9.809 8.42v-4.969l-8.757-7.514a1 1 0 0 1-.083-.071 4.924 4.924 0 0 1 1.602-8.04 4.95 4.95 0 0 1 3.168-.207.742.742 0 0 1 .409 1.17.745.745 0 0 1-.79.261 3.46 3.46 0 0 0-3.991 1.805 3.45 3.45 0 0 0-.356 1.524z"
                            clip-rule="evenodd"
                        ></path>
                        <path
                            fill="#0067CD"
                            d="m31.91 7.693 4.633-4.624a.5.5 0 0 0 0-.727L34.356.16a.5.5 0 0 0-.71-.017L24.24 9.528l-.018.017a.51.51 0 0 0 .018.71l2.204 2.2a.52.52 0 0 0 .659.05c.017-.016.051-.034.07-.05a4.014 4.014 0 0 1 2.602-.935 4.17 4.17 0 0 1 2.915 1.195 4.08 4.08 0 0 1 1.198 2.91 4.1 4.1 0 0 1-2.536 3.805c-.5.208-1.036.315-1.577.316H24.36a4.92 4.92 0 0 1-3.453-1.437 4.9 4.9 0 0 1-1.44-3.447v-3.345a2.05 2.05 0 0 0-1.274-1.905 2.1 2.1 0 0 0-.791-.156h-9.77a.523.523 0 0 0-.52.52v4.866a4.9 4.9 0 0 1-1.44 3.447 4.92 4.92 0 0 1-4.304 1.368.54.54 0 0 0-.538.346l-.816 3.014a.52.52 0 0 0 .364.623c.208.035.434.07.642.102q.587.079 1.18.086a9.02 9.02 0 0 0 6.369-2.632 8.99 8.99 0 0 0 2.637-6.356v-1.28h4.113v1.28a8.97 8.97 0 0 0 2.638 6.356 9 9 0 0 0 6.368 2.632h5.415a8.26 8.26 0 0 0 4.577-1.387 8.23 8.23 0 0 0 3.035-3.691 8.21 8.21 0 0 0-1.782-8.964 7.9 7.9 0 0 0-3.66-2.093M9.18 5.355h10.166l1.284 1.281a.504.504 0 0 0 .729 0l2.187-2.182.017-.017a.5.5 0 0 0 .07-.589l-.209-.208-1.77-1.767-.451-.45a.5.5 0 0 0-.364-.156H9.179a2.05 2.05 0 0 0-1.92 1.254 2.04 2.04 0 0 0 1.127 2.687c.252.101.522.15.793.146zm51.503 0H70.85l1.284 1.281a.504.504 0 0 0 .729 0l2.186-2.182.018-.017a.5.5 0 0 0 .07-.589l-.21-.208-1.769-1.767-.451-.45a.5.5 0 0 0-.364-.156H60.68a2.05 2.05 0 0 0-1.921 1.254 2.04 2.04 0 0 0 1.921 2.833zM42.15 7.399q-.54 0-1.075.069-.28.03-.556.087a.507.507 0 0 0-.364.623l.798 2.979v.017a.49.49 0 0 0 .52.346c.035 0 .07-.017.103-.017h.017q.267-.034.538-.034a4.17 4.17 0 0 1 2.915 1.194 4.08 4.08 0 0 1 1.197 2.91 4.15 4.15 0 0 1-1.197 2.91 4.09 4.09 0 0 1-2.915 1.194 4.5 4.5 0 0 1-1.076-.138c-.19-.051-.382-.122-.572-.19h-.018a.52.52 0 0 0-.642.224l-1.544 2.668a.533.533 0 0 0 .191.71 10 10 0 0 0 1.527.588 8 8 0 0 0 2.135.277c1.63 0 3.224-.483 4.58-1.387a8.23 8.23 0 0 0 3.036-3.692 8.21 8.21 0 0 0-1.785-8.966 8.35 8.35 0 0 0-5.815-2.373zm41.266.294 4.633-4.624a.5.5 0 0 0 0-.727L85.862.16a.5.5 0 0 0-.711-.018L75.745 9.53l-.017.017a.513.513 0 0 0 .017.71l2.204 2.2a.52.52 0 0 0 .66.05c.017-.016.05-.034.07-.05a4.015 4.015 0 0 1 2.603-.935 4.17 4.17 0 0 1 2.914 1.195 4.08 4.08 0 0 1 1.197 2.91 4.1 4.1 0 0 1-2.535 3.806c-.5.207-1.036.314-1.577.315h-5.415a4.92 4.92 0 0 1-3.453-1.437 4.9 4.9 0 0 1-1.44-3.447v-3.346a2.05 2.05 0 0 0-1.274-1.905 2.1 2.1 0 0 0-.791-.156h-9.789a.523.523 0 0 0-.52.52v4.866a4.9 4.9 0 0 1-1.44 3.447 4.92 4.92 0 0 1-4.304 1.368.54.54 0 0 0-.538.346l-.816 3.014a.52.52 0 0 0 .364.623c.208.035.434.07.642.102q.587.079 1.18.086a9.02 9.02 0 0 0 6.369-2.632 8.99 8.99 0 0 0 2.637-6.356v-1.28h4.113v1.28a8.97 8.97 0 0 0 2.638 6.356 9 9 0 0 0 6.368 2.632h5.415a8.26 8.26 0 0 0 4.577-1.387 8.23 8.23 0 0 0 3.035-3.691 8.21 8.21 0 0 0-1.782-8.964 7.75 7.75 0 0 0-3.644-2.093zm16.051 2.113a8.27 8.27 0 0 0-6.906-2.338q-.28.03-.556.087a.507.507 0 0 0-.364.623l.798 2.979v.017a.49.49 0 0 0 .52.346c.035 0 .07-.017.103-.017h.017q.268-.034.538-.034a4.17 4.17 0 0 1 2.915 1.194 4.08 4.08 0 0 1 1.197 2.91 4.15 4.15 0 0 1-1.197 2.91 4.1 4.1 0 0 1-2.915 1.194 4.5 4.5 0 0 1-1.076-.138c-.19-.051-.382-.122-.572-.19h-.018a.52.52 0 0 0-.642.224l-1.544 2.668a.534.534 0 0 0 .19.71 10 10 0 0 0 1.528.588 8 8 0 0 0 2.135.277 8.25 8.25 0 0 0 5.829-2.407 8.2 8.2 0 0 0 2.412-5.817 8.08 8.08 0 0 0-2.394-5.787z"
                        ></path>
                    </svg>